<?xml version="1.0" encoding="iso-8859-1"?>
<!-- Generator: Adobe Illustrator 18.0.0, SVG Export Plug-In . SVG Version: 6.00 Build 0)  -->
<!DOCTYPE svg PUBLIC "-//W3C//DTD SVG 1.1//EN" "http://www.w3.org/Graphics/SVG/1.1/DTD/svg11.dtd">
<svg version="1.1" id="Capa_1" xmlns="http://www.w3.org/2000/svg" xmlns:xlink="http://www.w3.org/1999/xlink" x="0px" y="0px"
	 viewBox="0 0 325 325" style="enable-background:new 0 0 325 325;" xml:space="preserve">
<path d="M319,79.832h-30.975V39.556c0-13.031-10.602-23.633-23.632-23.633H60.606c-13.029,0-23.63,10.602-23.63,23.633v40.276H6
	c-3.313,0-6,2.687-6,6v71.064c0,25.196,8.691,39.76,28.18,47.22c2.719,1.041,5.667,1.918,8.797,2.683v78.646
	c0,13.031,10.6,23.633,23.63,23.633h203.787c13.03,0,23.632-10.602,23.632-23.633v-78.646c3.129-0.766,6.077-1.643,8.795-2.683
	c19.489-7.46,28.18-22.023,28.18-47.22V85.832C325,82.519,322.313,79.832,319,79.832z M149.755,76.288
	c-11.568,0-19.875,8.679-20.907,21.426c-0.071,0.37-0.108,0.751-0.108,1.142v18.896c0,2.028-0.539,12.146-11.191,12.146
	c-10.649,0-11.188-10.117-11.188-12.146V27.923h112.281v68.684c0,6.467-0.84,6.581-6.305,7.323
	c-6.321,0.859-18.089,2.458-18.089,22.428v19.491c0,2.028-0.568,12.145-11.783,12.145c-11.214,0-11.782-10.116-11.782-12.145
	v-31.255l0.086-14.16C170.769,86.217,162.127,76.288,149.755,76.288z M48.977,39.556c0-6.414,5.217-11.633,11.63-11.633H94.36
	v89.828c0,11.999,7.965,24.146,23.188,24.146c15.225,0,23.191-12.146,23.191-24.146v-17.317c0-1.243,0.253-12.146,9.016-12.146
	c8.761,0,9.014,10.902,9.014,12.109l-0.086,14.16v31.291c0,11.998,8.169,24.145,23.782,24.145c15.614,0,23.783-12.146,23.783-24.145
	v-19.491c0-9.49,1.941-9.754,7.704-10.537c5.833-0.792,16.69-2.268,16.69-19.214V27.923h33.752c6.414,0,11.632,5.219,11.632,11.633
	v157.367c-13.658,2.031-31.111,2.405-52.18,2.453v-7.268c0-6.029-4.999-10.935-11.143-10.935H112.298
	c-6.145,0-11.144,4.905-11.144,10.935v7.268c-21.068-0.048-38.519-0.421-52.178-2.453V39.556z M113.154,193.174h98.691v24.417
	h-98.691V193.174z M32.47,192.909C21.838,188.84,12,181.66,12,156.896V91.832h24.977V194.39
	C35.406,193.934,33.886,193.451,32.47,192.909z M276.025,285.444c0,6.414-5.218,11.633-11.632,11.633H60.606
	c-6.413,0-11.63-5.219-11.63-11.633v-76.421c14.19,1.934,31.55,2.305,52.178,2.353v7.28c0,6.029,4.999,10.935,11.144,10.935h100.405
	c6.144,0,11.143-4.905,11.143-10.935v-7.28c20.628-0.048,37.988-0.419,52.18-2.353V285.444z M313,156.896
	c0,24.764-9.838,31.943-20.469,36.013c-1.416,0.542-2.937,1.024-4.506,1.48V91.832H313V156.896z"/>
<g>
</g>
<g>
</g>
<g>
</g>
<g>
</g>
<g>
</g>
<g>
</g>
<g>
</g>
<g>
</g>
<g>
</g>
<g>
</g>
<g>
</g>
<g>
</g>
<g>
</g>
<g>
</g>
<g>
</g>
</svg>
