<?xml version="1.0" encoding="iso-8859-1"?>
<!-- Generator: Adobe Illustrator 18.0.0, SVG Export Plug-In . SVG Version: 6.00 Build 0)  -->
<!DOCTYPE svg PUBLIC "-//W3C//DTD SVG 1.1//EN" "http://www.w3.org/Graphics/SVG/1.1/DTD/svg11.dtd">
<svg version="1.1" id="Capa_1" xmlns="http://www.w3.org/2000/svg" xmlns:xlink="http://www.w3.org/1999/xlink" x="0px" y="0px"
	 viewBox="0 0 324.999 324.999" style="enable-background:new 0 0 324.999 324.999;" xml:space="preserve">
<g>
	<path d="M289.046,13.401l-3.294-3.293C279.233,3.59,270.566,0,261.346,0c-9.221,0-17.888,3.59-24.407,10.108l-59.517,59.518
		l-3.681-3.68c-3.234-3.234-7.536-5.017-12.112-5.018c-0.001,0-0.002,0-0.003,0c-4.578,0-8.881,1.783-12.119,5.022l-1.283,1.286
		c-6.681,6.68-6.681,17.551-0.001,24.23l6.128,6.128L57.42,194.527c-0.692,0.692-1.205,1.544-1.492,2.48L38.923,252.38
		c-0.652,2.124-0.078,4.434,1.493,6.005c1.142,1.142,2.675,1.757,4.243,1.757c0.588,0,1.182-0.087,1.761-0.265l55.369-17.01
		c0.937-0.287,1.788-0.8,2.48-1.493l96.931-96.93l6.49,6.49c3.235,3.235,7.537,5.018,12.115,5.017c4.578,0,8.881-1.782,12.115-5.018
		l1.287-1.286c6.679-6.685,6.678-17.556-0.001-24.233l-3.677-3.678l59.518-59.517c0.042-0.042,0.082-0.084,0.122-0.126
		c6.44-6.503,9.985-15.12,9.985-24.283C299.155,28.587,295.565,19.919,289.046,13.401z M96.84,231.834l-43.123,13.248l13.244-43.125
		l15.827-15.827h59.757L96.84,231.834z M154.545,174.13H94.787l68.049-68.049l29.88,29.879L154.545,174.13z M280.564,53.729
		c-0.038,0.037-0.074,0.075-0.111,0.113l-63.649,63.648c-2.344,2.344-2.344,6.142-0.001,8.485l7.919,7.922
		c2.002,2.001,2.001,5.261,0,7.265l-1.286,1.285c-0.969,0.969-2.259,1.503-3.631,1.503c-1.371,0-2.66-0.533-3.629-1.502
		l-59.468-59.466c-2.001-2.002-2.001-5.26,0.004-7.265l1.284-1.287c0.97-0.969,2.258-1.503,3.63-1.503h0.001
		c1.372,0.001,2.66,0.534,3.629,1.503l7.925,7.922c2.344,2.342,6.142,2.343,8.485-0.001l63.758-63.76
		c4.253-4.252,9.907-6.593,15.922-6.593c6.015,0,11.669,2.341,15.921,6.594l3.295,3.294c4.252,4.251,6.595,9.905,6.595,15.921
		C287.156,43.824,284.814,49.479,280.564,53.729z"/>
	<path d="M44.658,279.315c-9.084,0-18.815,16.724-18.815,28.494c0,4.925,1.581,9.12,4.572,12.134
		c3.329,3.354,8.122,5.056,14.244,5.056c6.121,0,10.913-1.701,14.241-5.056c2.99-3.014,4.57-7.209,4.57-12.133
		C63.471,296.04,53.741,279.315,44.658,279.315z M51.265,309.762c-0.254,1.051-0.781,3.237-6.605,3.237h-0.001
		c-5.828,0-6.355-2.188-6.609-3.239c-1.342-5.564,3.581-14.796,6.609-17.803C47.685,294.965,52.606,304.197,51.265,309.762z"/>
</g>
<g>
</g>
<g>
</g>
<g>
</g>
<g>
</g>
<g>
</g>
<g>
</g>
<g>
</g>
<g>
</g>
<g>
</g>
<g>
</g>
<g>
</g>
<g>
</g>
<g>
</g>
<g>
</g>
<g>
</g>
</svg>
