<?xml version="1.0" encoding="iso-8859-1"?>
<!-- Generator: Adobe Illustrator 18.0.0, SVG Export Plug-In . SVG Version: 6.00 Build 0)  -->
<!DOCTYPE svg PUBLIC "-//W3C//DTD SVG 1.1//EN" "http://www.w3.org/Graphics/SVG/1.1/DTD/svg11.dtd">
<svg version="1.1" id="Capa_1" xmlns="http://www.w3.org/2000/svg" xmlns:xlink="http://www.w3.org/1999/xlink" x="0px" y="0px"
	 viewBox="0 0 326.432 326.432" style="enable-background:new 0 0 326.432 326.432;" xml:space="preserve">
<path d="M320.203,118.801L207.469,5.552C203.905,1.972,199.206,0,194.236,0c-4.775,0-9.239,1.843-12.567,5.188L5.868,181.791
	c-6.993,7.025-6.832,18.618,0.359,25.844l112.735,113.249c3.561,3.578,8.26,5.548,13.23,5.548c4.777,0,9.241-1.842,12.568-5.186
	l87.879-88.28c0.002-0.002,0.003-0.002,0.005-0.004c0.002-0.002,0.003-0.004,0.003-0.004l87.914-88.315
	C327.558,137.615,327.395,126.022,320.203,118.801z M136.257,312.78c-1.06,1.065-2.503,1.651-4.063,1.651
	c-1.755,0-3.434-0.715-4.727-2.014L14.732,199.169c-2.545-2.557-2.706-6.555-0.36-8.911l83.648-84.03L219.945,228.71L136.257,312.78
	z M312.059,136.176l-83.647,84.029L106.486,97.724l83.688-84.07c1.061-1.066,2.504-1.653,4.063-1.653
	c1.754,0,3.433,0.716,4.727,2.018L311.7,127.269C314.244,129.822,314.405,133.818,312.059,136.176z"/>
<g>
</g>
<g>
</g>
<g>
</g>
<g>
</g>
<g>
</g>
<g>
</g>
<g>
</g>
<g>
</g>
<g>
</g>
<g>
</g>
<g>
</g>
<g>
</g>
<g>
</g>
<g>
</g>
<g>
</g>
</svg>
