<?xml version="1.0" encoding="iso-8859-1"?>
<!-- Generator: Adobe Illustrator 18.0.0, SVG Export Plug-In . SVG Version: 6.00 Build 0)  -->
<!DOCTYPE svg PUBLIC "-//W3C//DTD SVG 1.1//EN" "http://www.w3.org/Graphics/SVG/1.1/DTD/svg11.dtd">
<svg version="1.1" id="Capa_1" xmlns="http://www.w3.org/2000/svg" xmlns:xlink="http://www.w3.org/1999/xlink" x="0px" y="0px"
	 viewBox="0 0 325 325" style="enable-background:new 0 0 325 325;" xml:space="preserve">
<path d="M280.448,281.668c0.165-0.277,0.308-0.567,0.427-0.871c0.014-0.035,0.026-0.072,0.04-0.108
	c0.113-0.308,0.205-0.624,0.268-0.953c0.006-0.03,0.009-0.062,0.014-0.093c0.059-0.335,0.095-0.678,0.095-1.029V6
	c0-3.313-2.686-6-6-6H49.709c-3.314,0-6,2.687-6,6v313c0,3.314,2.686,6,6,6h189.486c0.213,0,0.423-0.012,0.63-0.033
	c0.029-0.004,0.059-0.01,0.088-0.014c0.179-0.021,0.356-0.048,0.53-0.085c0.032-0.007,0.063-0.017,0.095-0.024
	c0.17-0.039,0.338-0.083,0.502-0.136c0.041-0.013,0.08-0.03,0.121-0.044c0.151-0.053,0.302-0.109,0.448-0.174
	c0.052-0.022,0.102-0.049,0.152-0.073c0.131-0.061,0.26-0.126,0.386-0.197c0.06-0.034,0.119-0.071,0.179-0.108
	c0.11-0.068,0.221-0.139,0.327-0.213c0.064-0.046,0.127-0.094,0.189-0.143c0.097-0.074,0.191-0.15,0.283-0.23
	c0.063-0.055,0.125-0.111,0.186-0.169c0.087-0.083,0.171-0.167,0.253-0.255c0.034-0.035,0.07-0.066,0.104-0.104l36.096-40.387
	c0.015-0.017,0.025-0.036,0.039-0.053c0.211-0.242,0.402-0.5,0.573-0.773C280.401,281.746,280.425,281.707,280.448,281.668z
	 M55.709,12h213.582v260.613h-30.096c-3.313,0-6,2.686-6,6V313H55.709V12z M261.882,284.613l-16.687,18.67v-18.67H261.882z"/>
<g>
</g>
<g>
</g>
<g>
</g>
<g>
</g>
<g>
</g>
<g>
</g>
<g>
</g>
<g>
</g>
<g>
</g>
<g>
</g>
<g>
</g>
<g>
</g>
<g>
</g>
<g>
</g>
<g>
</g>
</svg>
